<svg id="Capa_1" enable-background="new 0 0 512 512" height="18px" viewBox="0 0 512 512" width="18px" fill="#007bff" xmlns="http://www.w3.org/2000/svg"><g><path d="m481.652 217.633.007-162.637c0-14.69-5.719-28.5-16.106-38.888-10.386-10.387-24.197-16.108-38.887-16.108-30.323 0-54.993 24.67-54.993 54.993v47.375l-53.568 85.789c-12.368 19.806-29.698 36.26-50.119 47.584s-43.63 16.936-66.98 16.936l-170.667-.01v259.333h156.688v-36.15h60.413l83.289 26.302c20.693 6.535 42.189 9.848 63.89 9.848 47.99 0 87.033-39.042 87.033-87.033v-45.267l-26.646-42.667v-76.735zm-30 207.174c0 31.659-25.903 57.284-57.562 57.192-18.453-.053-36.728-2.897-54.327-8.455l-87.699-27.694h-65.037v-162.8h14.052c28.427 0 56.594-7.287 81.455-21.073s45.96-33.818 61.017-57.931l58.122-93.082v-55.971c0-13.803 11.19-24.993 24.994-24.993 13.803 0 24.993 11.191 24.992 24.994l-.006 154.04-26.646 42.667v93.932l26.646 42.667v36.507zm-327.968 57.193v-76.666h-30v76.666h-33.344v-199.333h96.688v199.333z"/><path d="m288.977 379.575h-72.97v30h102.97v-57.575h-30z"/></g></svg>